<svg width="4" height="20" viewBox="0 0 4 20" fill="none" xmlns="http://www.w3.org/2000/svg">
<path d="M1 2C1 2.55228 1.44772 3 2 3C2.55228 3 3 2.55228 3 2C3 1.44772 2.55228 1 2 1C1.44772 1 1 1.44772 1 2Z" fill="url(#paint0_linear_250_4756)" stroke="url(#paint1_linear_250_4756)" stroke-width="2"/>
<path d="M1 10C1 10.5523 1.44772 11 2 11C2.55228 11 3 10.5523 3 10C3 9.44772 2.55228 9 2 9C1.44772 9 1 9.44772 1 10Z" fill="url(#paint2_linear_250_4756)" stroke="url(#paint3_linear_250_4756)" stroke-width="2"/>
<path d="M1 18C1 18.5523 1.44772 19 2 19C2.55228 19 3 18.5523 3 18C3 17.4477 2.55228 17 2 17C1.44772 17 1 17.4477 1 18Z" fill="url(#paint4_linear_250_4756)" stroke="url(#paint5_linear_250_4756)" stroke-width="2"/>
<defs>
<linearGradient id="paint0_linear_250_4756" x1="2.00654" y1="1.02323" x2="2.00023" y2="2.98058" gradientUnits="userSpaceOnUse">
<stop stop-color="#0281C6"/>
<stop offset="1" stop-color="#005BAA"/>
</linearGradient>
<linearGradient id="paint1_linear_250_4756" x1="2.00654" y1="1.02323" x2="2.00023" y2="2.98058" gradientUnits="userSpaceOnUse">
<stop stop-color="#0281C6"/>
<stop offset="1" stop-color="#005BAA"/>
</linearGradient>
<linearGradient id="paint2_linear_250_4756" x1="2.00654" y1="9.02323" x2="2.00023" y2="10.9806" gradientUnits="userSpaceOnUse">
<stop stop-color="#0281C6"/>
<stop offset="1" stop-color="#005BAA"/>
</linearGradient>
<linearGradient id="paint3_linear_250_4756" x1="2.00654" y1="9.02323" x2="2.00023" y2="10.9806" gradientUnits="userSpaceOnUse">
<stop stop-color="#0281C6"/>
<stop offset="1" stop-color="#005BAA"/>
</linearGradient>
<linearGradient id="paint4_linear_250_4756" x1="2.00654" y1="17.0232" x2="2.00023" y2="18.9806" gradientUnits="userSpaceOnUse">
<stop stop-color="#0281C6"/>
<stop offset="1" stop-color="#005BAA"/>
</linearGradient>
<linearGradient id="paint5_linear_250_4756" x1="2.00654" y1="17.0232" x2="2.00023" y2="18.9806" gradientUnits="userSpaceOnUse">
<stop stop-color="#0281C6"/>
<stop offset="1" stop-color="#005BAA"/>
</linearGradient>
</defs>
</svg>
