<svg width="28" height="27" viewBox="0 0 28 27" fill="none" xmlns="http://www.w3.org/2000/svg">
<path d="M25.9167 5.5835H2.08333C1.48502 5.5835 1 6.06852 1 6.66683V24.0002C1 24.5985 1.48502 25.0835 2.08333 25.0835H25.9167C26.515 25.0835 27 24.5985 27 24.0002V6.66683C27 6.06852 26.515 5.5835 25.9167 5.5835Z" stroke="url(#paint0_linear_362_3)" stroke-width="2" stroke-linecap="round" stroke-linejoin="round"/>
<path opacity="0.2" d="M2.08333 6.5835H25.9167C25.9627 6.5835 26 6.62081 26 6.66683V24.0002C26 24.0462 25.9627 24.0835 25.9167 24.0835H2.08333C2.03731 24.0835 2 24.0462 2 24.0002V6.66683C2 6.62081 2.03731 6.5835 2.08333 6.5835Z" fill="url(#paint1_linear_362_3)" stroke="url(#paint2_linear_362_3)" stroke-width="2"/>
<path d="M14 11.5415V19.1248" stroke="url(#paint3_linear_362_3)" stroke-width="2" stroke-linecap="round" stroke-linejoin="round"/>
<path d="M17.7918 15.3335H10.2085" stroke="url(#paint4_linear_362_3)" stroke-width="2" stroke-linecap="round" stroke-linejoin="round"/>
<path d="M19.4168 5.58333V3.41667C19.4168 2.84203 19.1886 2.29093 18.7822 1.8846C18.3759 1.47827 17.8248 1.25 17.2502 1.25H10.7502C10.1755 1.25 9.62443 1.47827 9.2181 1.8846C8.81177 2.29093 8.5835 2.84203 8.5835 3.41667V5.58333" stroke="url(#paint5_linear_362_3)" stroke-width="2" stroke-linecap="round" stroke-linejoin="round"/>
<defs>
<linearGradient id="paint0_linear_362_3" x1="1.30203" y1="15.2698" x2="26.7473" y2="15.3792" gradientUnits="userSpaceOnUse">
<stop stop-color="#0281C6"/>
<stop offset="1" stop-color="#005BAA"/>
</linearGradient>
<linearGradient id="paint1_linear_362_3" x1="14" y1="5.5835" x2="14" y2="25.0835" gradientUnits="userSpaceOnUse">
<stop stop-color="#49D9DB"/>
<stop offset="1" stop-color="#1DB7BB"/>
</linearGradient>
<linearGradient id="paint2_linear_362_3" x1="1.30203" y1="15.2698" x2="26.7473" y2="15.3792" gradientUnits="userSpaceOnUse">
<stop stop-color="#0281C6"/>
<stop offset="1" stop-color="#005BAA"/>
</linearGradient>
<linearGradient id="paint3_linear_362_3" x1="14.0116" y1="15.3084" x2="14.9903" y2="15.3088" gradientUnits="userSpaceOnUse">
<stop stop-color="#0281C6"/>
<stop offset="1" stop-color="#005BAA"/>
</linearGradient>
<linearGradient id="paint4_linear_362_3" x1="10.2966" y1="15.8302" x2="17.7138" y2="16.0116" gradientUnits="userSpaceOnUse">
<stop stop-color="#0281C6"/>
<stop offset="1" stop-color="#005BAA"/>
</linearGradient>
<linearGradient id="paint5_linear_362_3" x1="8.70934" y1="3.4025" x2="19.311" y2="3.48797" gradientUnits="userSpaceOnUse">
<stop stop-color="#0281C6"/>
<stop offset="1" stop-color="#005BAA"/>
</linearGradient>
</defs>
</svg>
