<svg width="21" height="24" viewBox="0 0 21 24" fill="none" xmlns="http://www.w3.org/2000/svg">
<path d="M10.5 0C10.6989 0 10.8897 0.0790178 11.0303 0.21967C11.171 0.360322 11.25 0.551088 11.25 0.75V3H12.75C13.3467 3 13.919 3.23705 14.341 3.65901C14.7629 4.08097 15 4.65326 15 5.25V10.5H18.75C19.3467 10.5 19.919 10.7371 20.341 11.159C20.7629 11.581 21 12.1533 21 12.75V21.75C21 22.3467 20.7629 22.919 20.341 23.341C19.919 23.7629 19.3467 24 18.75 24H2.25C1.65326 24 1.08097 23.7629 0.65901 23.341C0.237053 22.919 0 22.3467 0 21.75V12.474C2.21504e-05 12.0856 0.100609 11.7037 0.291971 11.3657C0.483333 11.0277 0.758951 10.7449 1.092 10.545L5.592 7.845C5.7213 7.76681 5.85795 7.7015 6 7.65V5.25C6 4.65326 6.23705 4.08097 6.65901 3.65901C7.08097 3.23705 7.65326 3 8.25 3H9.75V0.75C9.75 0.551088 9.82902 0.360322 9.96967 0.21967C10.1103 0.0790178 10.3011 0 10.5 0V0ZM7.5 7.6515C8.3445 7.9545 9 8.7495 9 9.774V22.5H12V12.75C11.9998 12.2845 12.1439 11.8304 12.4125 11.4503C12.6812 11.0701 13.0611 10.7827 13.5 10.6275V5.2515C13.5 5.05259 13.421 4.86182 13.2803 4.72117C13.1397 4.58052 12.9489 4.5015 12.75 4.5015H8.25C8.05109 4.5015 7.86032 4.58052 7.71967 4.72117C7.57902 4.86182 7.5 5.05259 7.5 5.2515V7.6515V7.6515ZM14.25 12C14.0511 12 13.8603 12.079 13.7197 12.2197C13.579 12.3603 13.5 12.5511 13.5 12.75V22.5H18.75C18.9489 22.5 19.1397 22.421 19.2803 22.2803C19.421 22.1397 19.5 21.9489 19.5 21.75V12.75C19.5 12.5511 19.421 12.3603 19.2803 12.2197C19.1397 12.079 18.9489 12 18.75 12H14.25ZM6.3645 9.1305L1.8645 11.8305C1.7531 11.8973 1.66094 11.9918 1.59705 12.1049C1.53315 12.2179 1.49971 12.3456 1.5 12.4755V21.75C1.5 21.9489 1.57902 22.1397 1.71967 22.2803C1.86032 22.421 2.05109 22.5 2.25 22.5H7.5V9.774C7.50003 9.6413 7.46485 9.51097 7.39805 9.39631C7.33125 9.28165 7.23523 9.18676 7.11978 9.12134C7.00433 9.05591 6.87359 9.02229 6.7409 9.0239C6.60821 9.02551 6.47833 9.06229 6.3645 9.1305V9.1305Z" fill="#868889"/>
</svg>
