<svg width="53" height="53" viewBox="0 0 53 53" fill="none" xmlns="http://www.w3.org/2000/svg">
<path d="M0 44.1218C0.165302 43.5157 0.261728 42.8682 0.48213 42.2897C1.43261 39.8101 3.19583 38.1985 5.75801 37.4684C5.88198 37.427 6.01973 37.3857 6.19881 37.3306C6.19881 36.0909 6.18504 34.8649 6.19881 33.6251C6.21259 31.6002 6.86002 29.7681 8.11355 28.1839C10.3314 25.36 13.9955 24.1616 17.4531 25.1121C20.8831 26.0488 23.4177 28.9967 23.8723 32.5506C23.9274 33.0052 23.955 33.4736 23.955 33.9419C23.9687 37.3995 23.9412 40.8571 23.9687 44.3284C23.9963 47.4829 26.586 49.9211 29.7267 49.7833C32.5231 49.6594 34.8098 47.3314 34.9337 44.535C34.9751 43.6534 34.8373 42.8544 34.4792 42.0417C33.1568 39.025 31.8894 35.9669 30.5946 32.9363C30.4844 32.6884 30.2777 32.4404 30.0573 32.3027C27.2885 30.5946 25.4014 28.1977 24.4922 25.0707C23.1009 20.2908 21.7234 15.497 20.3872 10.7033C19.1337 6.24014 22.3157 2.08005 26.9579 2.06627C27.1921 2.06627 27.4263 2.06627 27.7156 2.06627C27.6191 1.04691 28.0048 0.344378 28.9416 0C29.1895 0 29.4237 0 29.6579 0C30.3191 0.316828 30.8012 0.743857 30.815 1.54281C30.815 2.92033 30.8288 4.29784 30.815 5.67536C30.8012 6.54319 30.1675 7.19062 29.341 7.23195C28.5283 7.2595 27.8258 6.63961 27.7431 5.79933C27.7156 5.60648 27.7156 5.39985 27.7018 5.17945C27.4538 5.17945 27.2472 5.17945 27.0406 5.17945C24.3544 5.19322 22.6739 7.38347 23.404 9.95942C24.7539 14.6981 26.0901 19.4505 27.4814 24.1754C28.6661 28.239 32.3302 30.9941 36.4903 30.9941C40.6504 31.0078 44.3559 28.2666 45.5406 24.2167C46.9457 19.4367 48.2956 14.643 49.6456 9.84922C50.417 7.10797 48.1579 4.69732 45.3202 5.23455C45.2926 5.52383 45.3064 5.81311 45.2375 6.08861C45.0585 6.81869 44.3284 7.30082 43.5983 7.23195C42.7993 7.1493 42.207 6.50186 42.1932 5.64781C42.1795 4.42182 42.2208 3.20961 42.1795 1.98362C42.1519 1.01936 42.4963 0.358152 43.4054 0.0137739C43.6534 0.0137739 43.8876 0.0137739 44.1218 0.0137739C45.0171 0.399478 45.4028 1.08823 45.2651 2.08004C45.6508 2.08004 45.9401 2.08004 46.2294 2.08004C49.2461 2.10759 51.8221 4.07744 52.6486 6.98399C52.745 7.3146 52.8139 7.6452 52.8965 7.9758C52.8965 8.52681 52.8965 9.07781 52.8965 9.62882C52.8001 9.9732 52.7174 10.3176 52.621 10.662C51.2573 15.4557 49.9073 20.2494 48.516 25.0294C47.6069 28.1839 45.7197 30.6221 42.9095 32.344C42.6891 32.4818 42.4825 32.7435 42.3723 32.9914C41.105 35.9531 39.8652 38.9423 38.5704 41.904C38.1985 42.758 38.0056 43.5983 38.0056 44.535C37.9643 48.3094 35.3608 51.6154 31.7104 52.6072C31.2696 52.7312 30.815 52.8139 30.3604 52.9241C29.7405 52.9241 29.1206 52.9241 28.5008 52.9241C28.4457 52.8965 28.3768 52.8552 28.3217 52.8414C23.7759 52.0838 20.8556 48.6538 20.8556 44.0529C20.8556 40.5402 20.8831 37.0276 20.8418 33.5149C20.8005 30.6221 18.5138 28.239 15.6072 27.936C12.8247 27.6605 10.0696 29.5063 9.53239 32.2614C9.20179 33.9144 9.29822 35.6363 9.21556 37.3168C9.50484 37.3995 9.67014 37.4546 9.83545 37.4959C13.5961 38.5566 15.9516 42.1657 15.4282 46.0365C14.9322 49.6731 11.8466 52.5108 8.22376 52.6899C4.47692 52.8827 1.11579 50.4032 0.247952 46.8217C0.165301 46.5049 0.0964255 46.188 0.0275499 45.885C-4.20794e-07 45.2926 0 44.7141 0 44.1218ZM7.76918 40.306C5.22078 40.2923 3.11318 42.3585 3.09941 44.9069C3.07186 47.4829 5.1519 49.5905 7.72785 49.6043C10.2762 49.618 12.3838 47.5518 12.3976 45.0034C12.4114 42.4274 10.3314 40.3198 7.76918 40.306ZM34.4241 34.0384C35.099 35.6363 35.774 37.2204 36.4903 38.9148C37.2066 37.2066 37.8816 35.6225 38.5566 34.0384C37.1378 34.0384 35.8016 34.0384 34.4241 34.0384Z" fill="url(#paint0_linear_16_2442)"/>
<path d="M7.67277 46.4911C6.83248 46.4498 6.17128 45.7197 6.19883 44.8794C6.24015 44.0254 6.99779 43.3366 7.85184 43.3917C8.69213 43.4468 9.35333 44.1907 9.29823 45.0309C9.24313 45.8712 8.49928 46.5462 7.67277 46.4911Z" fill="url(#paint1_linear_16_2442)"/>
<defs>
<linearGradient id="paint0_linear_16_2442" x1="26.4483" y1="0" x2="26.4483" y2="52.9241" gradientUnits="userSpaceOnUse">
<stop stop-color="#49D9DB"/>
<stop offset="1" stop-color="#1DB7BB"/>
</linearGradient>
<linearGradient id="paint1_linear_16_2442" x1="7.74972" y1="43.3886" x2="7.74972" y2="46.4943" gradientUnits="userSpaceOnUse">
<stop stop-color="#49D9DB"/>
<stop offset="1" stop-color="#1DB7BB"/>
</linearGradient>
</defs>
</svg>
