<svg width="285" height="285" viewBox="0 0 285 285" fill="none" xmlns="http://www.w3.org/2000/svg">
<path d="M272.719 0.541992H261.359H250H238.64H227.28H215.921H204.561V11.9016V23.2643V34.6239V45.9835V57.3432V68.7058V80.0685H215.921H227.28H238.64H250H261.359H272.719H284.081V68.7058V57.3432V45.9835V34.6239V23.2643V11.9016V0.541992H272.719ZM272.719 23.2643V34.6239V45.9835V57.3432V68.7058H261.359H250H238.64H227.28H215.921V57.3432V45.9835V34.6239V23.2643V11.9016H227.28H238.64H250H261.359H272.719V23.2643Z" fill="#1E1C24"/>
<path d="M113.669 23.2643H125.032V11.9046V0.541992H113.669V11.9046H102.31H90.9502V23.2643V34.6269H102.31V23.2643H113.669Z" fill="#1E1C24"/>
<path d="M159.115 23.2643H170.475V34.6269H159.115V45.9866H170.475V57.3462H181.834H193.197V45.9866H181.834V34.6269V23.2643H193.197V11.9046V0.541992H181.834H170.475V11.9046H159.115H147.755V23.2643V34.6269H159.115V23.2643Z" fill="#1E1C24"/>
<path d="M238.637 23.2637H227.277V34.6263V45.986V57.3456H238.637H249.997H261.359V45.986V34.6263V23.2637H249.997H238.637Z" fill="#1E1C24"/>
<path d="M45.5055 57.3456H56.8651V45.986V34.6263V23.2637H45.5055H34.1459H22.7832V34.6263V45.986V57.3456H34.1459H45.5055Z" fill="#1E1C24"/>
<path d="M22.7842 80.0685H34.1469H45.5065H56.8661H68.2288H79.5884V68.7058V57.3432V45.9835V34.6239V23.2643V11.9016V0.541992H68.2288H56.8661H45.5065H34.1469H22.7842H11.4246H0.0649414V11.9016V23.2643V34.6239V45.9835V57.3432V68.7058V80.0685H11.4246H22.7842ZM11.4246 57.3462V45.9866V34.6269V23.2673V11.9046H22.7842H34.1469H45.5065H56.8661H68.2288V23.2673V34.6269V45.9866V57.3462V68.7088H56.8661H45.5065H34.1469H22.7842H11.4246V57.3462Z" fill="#1E1C24"/>
<path d="M147.753 68.7079V57.3453H159.113V45.9856H147.753V34.626H136.391V45.9856V57.3453V68.7079V80.0676H147.753V68.7079Z" fill="#1E1C24"/>
<path d="M170.472 68.708H159.113V80.0707H170.472V68.708Z" fill="#1E1C24"/>
<path d="M181.832 80.0677V91.4303H193.195V80.0677V68.708H181.832V80.0677Z" fill="#1E1C24"/>
<path d="M159.115 80.0674H147.755V91.427H159.115V80.0674Z" fill="#1E1C24"/>
<path d="M68.2285 91.4316V102.791H79.5881H90.9508V91.4316H79.5881H68.2285Z" fill="#1E1C24"/>
<path d="M11.4231 91.4316H0.0634766V102.791V114.151H11.4231V102.791H22.7827V91.4316H11.4231Z" fill="#1E1C24"/>
<path d="M113.673 102.789H102.31V114.149H113.673V102.789Z" fill="#1E1C24"/>
<path d="M272.719 102.791V91.4316H261.36H249.997V102.791H261.36V114.151H272.719V102.791Z" fill="#1E1C24"/>
<path d="M261.36 125.512V114.149H249.997H238.637V125.512H249.997H261.36Z" fill="#1E1C24"/>
<path d="M238.637 125.514H227.277V136.873H238.637V125.514Z" fill="#1E1C24"/>
<path d="M272.719 136.873H261.36H249.997V148.233V159.596H261.36V170.955H272.719H284.082V159.596V148.233V136.873V125.514H272.719V136.873Z" fill="#1E1C24"/>
<path d="M45.5053 136.873H56.8649V148.233H68.2276H79.5872V136.873H68.2276V125.514H79.5872V114.151H68.2276H56.8649V102.791H45.5053V91.4316H34.1456V102.791H22.783V114.151H34.1456V125.514H22.783H11.4233V136.873H22.783H34.1456V148.233H45.5053V136.873Z" fill="#1E1C24"/>
<path d="M34.1459 148.231H22.7832V159.594H34.1459V148.231Z" fill="#1E1C24"/>
<path d="M238.637 148.231H227.278V136.872H215.918V125.512H227.278V114.149H215.918V102.79H227.278H238.637V91.4302H227.278H215.918H204.559V102.79H193.199V114.149V125.512H181.836V136.872H193.199H204.559V148.231H193.199H181.836H170.477V159.594H159.117V148.231H147.757V159.594V170.954H159.117H170.477H181.836V182.313V193.673H170.477H159.117V182.313H147.757H136.398V193.673V205.033H125.035V193.673V182.313H136.398V170.954V159.594V148.231V136.872H147.757H159.117V148.231H170.477V136.872V125.512H181.836V114.149H170.477V102.79V91.4302H159.117V102.79H147.757V91.4302H136.398V80.0706H125.035V68.7079V57.3453V45.9856H113.675V34.626H102.313V45.9856H90.9531V57.3453V68.7079V80.0706V91.4302H102.313V80.0706V68.7079V57.3453H113.675V68.7079V80.0706V91.4302H125.035V102.79V114.149V125.512H113.675H102.313H90.9531V136.872V148.231V159.594H79.5905H68.2309H56.8682V148.231H45.5086V159.594H34.1489V170.954H45.5086V182.313H34.1489V193.673H45.5086H56.8682H68.2309H79.5905V182.313H68.2309H56.8682V170.954H68.2309H79.5905V182.313H90.9531V170.954H102.313V159.594H113.675V148.231H102.313V136.872H113.675V148.231H125.035V159.594V170.954H113.675H102.313V182.313H90.9531V193.673V205.033V216.392H102.313V227.752V239.114H113.675V227.752H125.035V216.392H136.398V227.752H147.757V216.392V205.033H159.117V216.392V227.752H170.477H181.836V239.114V250.474H193.199V239.114H204.559H215.918H227.278V250.474H238.637V261.834V273.193H249.997H261.357V284.556H272.716H284.079V273.193V261.834V250.474H272.716V261.834H261.357V250.474H249.997V239.114H238.637V227.752H249.997V239.114H261.357H272.716V227.752H284.079V216.392V205.033H272.716H261.357V216.392H249.997V205.033H238.637V193.673V182.313H227.278V170.954H215.918V159.594H227.278V170.954H238.637H249.997V159.594H238.637V148.231ZM113.669 205.036H102.307V193.676H113.669V205.036ZM181.833 216.395H170.474V205.036H181.833V216.395ZM193.196 159.594H204.556V170.954H193.196V159.594ZM227.278 193.676V205.036V216.395V227.755H215.918H204.559H193.199V216.395V205.036V193.676H204.559H215.918H227.278Z" fill="#1E1C24"/>
<path d="M11.4231 159.596H0.0634766V170.955H11.4231V159.596Z" fill="#1E1C24"/>
<path d="M22.7827 170.955H11.4231V182.315H0.0634766V193.677H11.4231H22.7827V182.315H34.1454V170.955H22.7827Z" fill="#1E1C24"/>
<path d="M284.081 182.315H272.719V193.675H284.081V182.315Z" fill="#1E1C24"/>
<path d="M56.8646 205.037H45.505H34.1454H22.7827H11.4231H0.0634766V216.397V227.756V239.119V250.479V261.838V273.198V284.561H11.4231H22.7827H34.1454H45.505H56.8646H68.2273H79.5869V273.198V261.838V250.479V239.119V227.756V216.397V205.037H68.2273H56.8646ZM68.2273 227.756V239.119V250.479V261.838V273.198H56.8646H45.505H34.1454H22.7827H11.4231V261.838V250.479V239.119V227.756V216.397H22.7827H34.1454H45.505H56.8646H68.2273V227.756Z" fill="#1E1C24"/>
<path d="M215.917 205.037H204.558V216.397H215.917V205.037Z" fill="#1E1C24"/>
<path d="M34.1459 227.757H22.7832V239.12V250.482V261.842H34.1459H45.5055H56.8651V250.482V239.12V227.757H45.5055H34.1459Z" fill="#1E1C24"/>
<path d="M136.393 239.119H125.031V250.479H136.393V239.119Z" fill="#1E1C24"/>
<path d="M102.31 239.119H90.9502V250.479H102.31V239.119Z" fill="#1E1C24"/>
<path d="M170.472 239.119H159.113V250.479H170.472V239.119Z" fill="#1E1C24"/>
<path d="M204.558 250.481H193.195V261.841V273.201H204.558V261.841H215.918V250.481H204.558Z" fill="#1E1C24"/>
<path d="M181.832 250.481H170.473V261.841H181.832V250.481Z" fill="#1E1C24"/>
<path d="M90.9502 261.841V273.201V284.563H102.31V273.201H113.669H125.032V261.841V250.481H113.669H102.31V261.841H90.9502Z" fill="#1E1C24"/>
<path d="M170.472 261.841H159.113V273.2H170.472V261.841Z" fill="#1E1C24"/>
<path d="M227.277 261.841H215.917V273.2H227.277V261.841Z" fill="#1E1C24"/>
<path d="M147.75 273.2H136.391V284.563H147.75V273.2Z" fill="#1E1C24"/>
<path d="M238.637 273.2H227.277V284.563H238.637V273.2Z" fill="#1E1C24"/>
<path d="M170.473 273.2V284.563H181.832H193.195V273.2H181.832H170.473Z" fill="#1E1C24"/>
</svg>
