<svg width="23" height="22" viewBox="0 0 23 22" fill="none" xmlns="http://www.w3.org/2000/svg">
<path d="M23 15.294C23 15.6235 23 15.9529 23 16.2823C22.9042 16.7136 22.8443 17.1508 22.7125 17.5701C22.0057 19.7742 19.8854 21.5352 17.1242 21.5232C11.5 21.4992 5.86979 21.5172 0.245573 21.5172C0.161719 21.5172 0.0838542 21.5052 0 21.4992C0 19.4029 0 17.3065 0 15.2102C0.0299479 14.9945 0.0598958 14.7849 0.0898438 14.5693C0.347396 12.7485 1.04818 11.1373 2.30599 9.78361C2.82708 9.22059 3.43203 8.7534 4.11484 8.35809C4.06094 8.2922 4.01302 8.23231 3.9651 8.1784C3.06667 7.04637 2.68932 5.7646 2.88698 4.33309C3.36016 0.919028 7.01979 -0.991651 10.1164 0.541683C10.2062 0.58361 10.35 0.583611 10.4398 0.535694C11.3862 0.0685063 12.3865 -0.105192 13.4286 0.0625162C15.3154 0.367985 16.663 1.42215 17.3578 3.19507C18.0526 4.962 17.7591 6.63309 16.6091 8.14246C16.5612 8.20835 16.5073 8.26825 16.4534 8.33413C16.4953 8.36408 16.5133 8.38205 16.5372 8.40002C17.3339 8.83726 18.0107 9.42424 18.5797 10.131C18.6456 10.2089 18.7594 10.2628 18.8552 10.2927C20.9216 10.9516 22.2453 12.3232 22.8203 14.4195C22.9042 14.707 22.9401 15.0005 23 15.294ZM1.34766 20.1456C5.42656 20.1456 9.47552 20.1456 13.5185 20.1456C13.5125 20.0797 13.4766 20.0677 13.4466 20.0438C11.0508 17.8276 10.907 14.2938 13.1112 11.88C13.219 11.7662 13.201 11.6883 13.1292 11.5745C12.5182 10.6042 11.6917 9.88543 10.6615 9.38231C10.5177 9.31043 10.4099 9.31642 10.2661 9.3883C8.64896 10.2388 7.03177 10.2388 5.41458 9.38231C5.28281 9.31043 5.18099 9.30444 5.0612 9.38231C4.62995 9.66382 4.16276 9.90939 3.77943 10.2448C2.1263 11.6883 1.40755 13.563 1.34766 15.7133C1.31771 16.8274 1.34167 17.9414 1.34167 19.0615C1.34766 19.4149 1.34766 19.7742 1.34766 20.1456ZM17.2859 20.1636C19.7117 20.1516 21.6583 18.187 21.6523 15.7612C21.6404 13.3534 19.6758 11.4128 17.256 11.4188C14.8482 11.4248 12.8896 13.4013 12.9016 15.8031C12.9135 18.2169 14.8841 20.1755 17.2859 20.1636ZM7.86432 1.35028C5.85182 1.34429 4.1987 2.97345 4.18672 4.98595C4.17474 7.00444 5.82187 8.66356 7.84036 8.67554C9.85286 8.68153 11.5 7.04637 11.512 5.03387C11.518 3.0034 9.89479 1.36226 7.86432 1.35028ZM11.518 1.54793C13.2909 3.80601 13.3208 6.06408 11.6078 8.38205C11.7995 8.4659 11.9911 8.60366 12.1948 8.62762C12.5302 8.66955 12.8836 8.67554 13.225 8.63361C14.8721 8.412 16.1958 7.03439 16.3516 5.39924C16.5133 3.69819 15.519 2.11694 13.9258 1.55991C13.1232 1.2784 12.3146 1.2784 11.518 1.54793ZM16.5911 10.113C16.6031 10.0831 16.6151 10.0591 16.6271 10.0292C16.2078 9.79559 15.7885 9.55601 15.3633 9.3284C15.3154 9.30444 15.2255 9.34637 15.1596 9.37632C14.8422 9.50809 14.5367 9.65783 14.2193 9.78361C14.0276 9.85549 13.824 9.89741 13.6203 9.95731C13.8599 10.2807 14.0875 10.5922 14.3211 10.9037C15.0279 10.4724 15.7826 10.2149 16.5911 10.113Z" fill="#406075"/>
<path d="M19.8496 15.1084C19.8496 15.5756 19.8496 16.0068 19.8496 16.4561C19.2267 16.4561 18.6098 16.4561 17.9569 16.4561C17.9569 16.5639 17.9569 16.6477 17.9569 16.7316C17.9569 17.2167 17.9629 17.7019 17.9509 18.193C17.9509 18.2589 17.8731 18.3727 17.8312 18.3727C17.4358 18.3847 17.0405 18.3787 16.6153 18.3787C16.6153 17.7378 16.6153 17.1149 16.6153 16.468C15.9624 16.468 15.3395 16.468 14.7046 16.468C14.7046 16.0128 14.7046 15.5816 14.7046 15.1264C15.3275 15.1264 15.9504 15.1264 16.6093 15.1264C16.6093 14.4795 16.6093 13.8566 16.6093 13.2217C17.0705 13.2217 17.5017 13.2217 17.9509 13.2217C17.9509 13.8506 17.9509 14.4675 17.9509 15.1084C18.5858 15.1084 19.2088 15.1084 19.8496 15.1084Z" fill="#406075"/>
</svg>
