<svg width="18" height="24" viewBox="0 0 18 24" fill="none" xmlns="http://www.w3.org/2000/svg">
<path d="M14 19H10V15.4H12.6667V14.2H10V13H14V16.6H11.3333V17.8H14V19Z" fill="#868889"/>
<path d="M8 19H4V15.4H6.66667V14.2H4V13H8V16.6H5.33333V17.8H8V19Z" fill="#868889"/>
<path d="M16.8855 6.25737L10.8856 0.257442C10.8102 0.173693 10.7174 0.107325 10.6138 0.0629274C10.5102 0.01853 10.3982 -0.00283759 10.2856 0.000302056H1.71426C1.26003 0.00165866 0.824788 0.182704 0.503595 0.503897C0.182402 0.82509 0.00135661 1.26033 0 1.71457V22.2857C0.00135661 22.74 0.182402 23.1752 0.503595 23.4964C0.824788 23.8176 1.26003 23.9986 1.71426 24H15.4284C15.8826 23.9986 16.3179 23.8176 16.639 23.4964C16.9602 23.1752 17.1413 22.74 17.1426 22.2857V6.85736C17.1458 6.7447 17.1244 6.63269 17.08 6.5291C17.0356 6.42551 16.9693 6.33279 16.8855 6.25737ZM10.2856 2.05742L15.0855 6.85736H10.2856V2.05742ZM15.4284 22.2857H1.71426V1.71457H8.57132V6.85736C8.57268 7.31159 8.75372 7.74683 9.07491 8.06803C9.39611 8.38922 9.83135 8.57027 10.2856 8.57162H15.4284V22.2857Z" fill="#868889"/>
</svg>
