<svg width="16" height="23" viewBox="0 0 16 23" fill="none" xmlns="http://www.w3.org/2000/svg">
<path d="M15.4003 0H11.4021C11.243 0 11.0905 0.0660874 10.978 0.183724C10.8655 0.30136 10.8024 0.46091 10.8024 0.627273C10.8024 0.793636 10.8655 0.953185 10.978 1.07082C11.0905 1.18846 11.243 1.25455 11.4021 1.25455H13.9509L11.0422 4.30727C10.2687 3.5694 9.33827 3.0347 8.32798 2.74737C7.3177 2.46004 6.25654 2.42834 5.23223 2.65488C4.20791 2.88142 3.24986 3.35971 2.43726 4.05019C1.62466 4.74068 0.980851 5.62354 0.559057 6.62579C0.137264 7.62804 -0.0504038 8.7209 0.011568 9.81403C0.0735398 10.9072 0.383371 11.9692 0.91545 12.9123C1.44753 13.8554 2.18657 14.6525 3.0715 15.2377C3.95642 15.8229 4.9618 16.1794 6.00453 16.2777V18.8182H3.40571C3.24665 18.8182 3.09411 18.8843 2.98164 19.0019C2.86917 19.1195 2.80598 19.2791 2.80598 19.4455C2.80598 19.6118 2.86917 19.7714 2.98164 19.889C3.09411 20.0066 3.24665 20.0727 3.40571 20.0727H6.00453V22.3727C6.00453 22.5391 6.06772 22.6986 6.18019 22.8163C6.29266 22.9339 6.4452 23 6.60426 23C6.76332 23 6.91586 22.9339 7.02833 22.8163C7.1408 22.6986 7.20399 22.5391 7.20399 22.3727V20.0727H9.80281C9.96187 20.0727 10.1144 20.0066 10.2269 19.889C10.3394 19.7714 10.4025 19.6118 10.4025 19.4455C10.4025 19.2791 10.3394 19.1195 10.2269 19.0019C10.1144 18.8843 9.96187 18.8182 9.80281 18.8182H7.20399V16.2777C8.37709 16.1654 9.50004 15.7266 10.4562 15.0069C11.4123 14.2871 12.1667 13.3128 12.6411 12.185C13.1155 11.0572 13.2924 9.81707 13.1536 8.59354C13.0149 7.37002 12.5654 6.20767 11.8519 5.22727L14.8005 2.14318V4.80909C14.8005 4.97545 14.8637 5.135 14.9762 5.25264C15.0887 5.37028 15.2412 5.43636 15.4003 5.43636C15.5593 5.43636 15.7119 5.37028 15.8243 5.25264C15.9368 5.135 16 4.97545 16 4.80909V0.627273C16 0.46091 15.9368 0.30136 15.8243 0.183724C15.7119 0.0660874 15.5593 0 15.4003 0ZM6.60426 15.0545C5.53673 15.0545 4.49316 14.7234 3.60554 14.1031C2.71792 13.4828 2.0261 12.6011 1.61757 11.5695C1.20905 10.5379 1.10216 9.40283 1.31042 8.30772C1.51869 7.21261 2.03275 6.20668 2.78762 5.41715C3.54248 4.62762 4.50423 4.08994 5.55125 3.87211C6.59827 3.65428 7.68354 3.76608 8.66981 4.19337C9.65609 4.62066 10.4991 5.34425 11.0922 6.27264C11.6853 7.20103 12.0018 8.29253 12.0018 9.40909C12.0018 10.9064 11.4331 12.3423 10.4209 13.401C9.40867 14.4598 8.03578 15.0545 6.60426 15.0545V15.0545Z" fill="#868889"/>
</svg>
