<svg width="15" height="15" viewBox="0 0 15 15" fill="none" xmlns="http://www.w3.org/2000/svg">
<path fill-rule="evenodd" clip-rule="evenodd" d="M7.5 0C3.35795 0 0 3.35795 0 7.5C0 11.642 3.35795 15 7.5 15C11.642 15 15 11.642 15 7.5C15 3.35795 11.642 0 7.5 0ZM7.15909 3.40909C6.97826 3.40909 6.80484 3.48093 6.67697 3.60879C6.54911 3.73666 6.47727 3.91008 6.47727 4.09091C6.47727 4.27174 6.54911 4.44516 6.67697 4.57303C6.80484 4.70089 6.97826 4.77273 7.15909 4.77273H7.5C7.68083 4.77273 7.85425 4.70089 7.98212 4.57303C8.10998 4.44516 8.18182 4.27174 8.18182 4.09091C8.18182 3.91008 8.10998 3.73666 7.98212 3.60879C7.85425 3.48093 7.68083 3.40909 7.5 3.40909H7.15909ZM6.13636 6.13636C5.95553 6.13636 5.78211 6.2082 5.65425 6.33606C5.52638 6.46393 5.45455 6.63735 5.45455 6.81818C5.45455 6.99901 5.52638 7.17243 5.65425 7.3003C5.78211 7.42817 5.95553 7.5 6.13636 7.5H6.81818V9.54545H6.13636C5.95553 9.54545 5.78211 9.61729 5.65425 9.74515C5.52638 9.87302 5.45455 10.0464 5.45455 10.2273C5.45455 10.4081 5.52638 10.5815 5.65425 10.7094C5.78211 10.8373 5.95553 10.9091 6.13636 10.9091H8.86364C9.04447 10.9091 9.21789 10.8373 9.34575 10.7094C9.47362 10.5815 9.54545 10.4081 9.54545 10.2273C9.54545 10.0464 9.47362 9.87302 9.34575 9.74515C9.21789 9.61729 9.04447 9.54545 8.86364 9.54545H8.18182V6.81818C8.18182 6.63735 8.10998 6.46393 7.98212 6.33606C7.85425 6.2082 7.68083 6.13636 7.5 6.13636H6.13636Z" fill="#406075"/>
</svg>
