<svg width="22" height="26" viewBox="0 0 22 26" fill="none" xmlns="http://www.w3.org/2000/svg">
<path d="M20 25H2C1.73478 25 1.48043 24.8946 1.29289 24.7071C1.10536 24.5196 1 24.2652 1 24V2C1 1.73478 1.10536 1.48043 1.29289 1.29289C1.48043 1.10536 1.73478 1 2 1H14L21 8V24C21 24.2652 20.8946 24.5196 20.7071 24.7071C20.5196 24.8946 20.2652 25 20 25Z" stroke="url(#paint0_linear_250_4985)" stroke-width="2" stroke-linecap="round" stroke-linejoin="round"/>
<path d="M14 1V8H21" stroke="url(#paint1_linear_250_4985)" stroke-width="2" stroke-linecap="round" stroke-linejoin="round"/>
<path d="M7 14H15" stroke="url(#paint2_linear_250_4985)" stroke-width="2" stroke-linecap="round" stroke-linejoin="round"/>
<path d="M7 18H15" stroke="url(#paint3_linear_250_4985)" stroke-width="2" stroke-linecap="round" stroke-linejoin="round"/>
<defs>
<linearGradient id="paint0_linear_250_4985" x1="1.23233" y1="12.9216" x2="20.8058" y2="12.9741" gradientUnits="userSpaceOnUse">
<stop stop-color="#0281C6"/>
<stop offset="1" stop-color="#005BAA"/>
</linearGradient>
<linearGradient id="paint1_linear_250_4985" x1="14.0813" y1="4.47712" x2="20.932" y2="4.49921" gradientUnits="userSpaceOnUse">
<stop stop-color="#0281C6"/>
<stop offset="1" stop-color="#005BAA"/>
</linearGradient>
<linearGradient id="paint2_linear_250_4985" x1="7.09293" y1="14.4967" x2="14.9172" y2="14.6986" gradientUnits="userSpaceOnUse">
<stop stop-color="#0281C6"/>
<stop offset="1" stop-color="#005BAA"/>
</linearGradient>
<linearGradient id="paint3_linear_250_4985" x1="7.09293" y1="18.4967" x2="14.9172" y2="18.6986" gradientUnits="userSpaceOnUse">
<stop stop-color="#0281C6"/>
<stop offset="1" stop-color="#005BAA"/>
</linearGradient>
</defs>
</svg>
