<svg width="52" height="53" viewBox="0 0 52 53" fill="none" xmlns="http://www.w3.org/2000/svg">
<path d="M0 34.7253C0.108305 34.2109 0.203072 33.6964 0.338454 33.1955C1.47566 28.9716 5.30695 26.0068 9.69331 25.9932C16.2458 25.9797 22.7847 25.9662 29.3372 25.9932C32.0177 26.0068 34.3056 27.0086 36.201 28.9175C36.6342 29.3642 36.6884 29.8922 36.377 30.339C36.1062 30.7451 35.5782 30.9211 35.1179 30.7316C34.9284 30.6504 34.7389 30.5014 34.59 30.3525C33.0737 28.8904 31.2731 28.1593 29.1882 28.1593C22.7305 28.1458 16.2593 28.1323 9.80161 28.1593C5.57771 28.1729 2.27441 31.4085 2.17964 35.6053C2.12549 38.0557 2.1661 40.5061 2.1661 42.9701C2.1661 43.0648 2.17964 43.1596 2.20672 43.3356C2.42333 43.3356 2.61286 43.3356 2.81593 43.3356C6.41708 43.3356 10.0182 43.3356 13.6329 43.3356C13.8224 43.3356 14.012 43.3356 14.188 43.3491C14.7566 43.4033 15.1492 43.823 15.1627 44.3916C15.1763 44.9466 14.7837 45.4069 14.2286 45.4746C14.012 45.5017 13.7954 45.4882 13.5652 45.4882C9.51731 45.4882 5.48295 45.4746 1.43504 45.5017C0.771674 45.5017 0.284301 45.2986 0.0135379 44.6759C-2.06777e-07 41.359 0 38.0422 0 34.7253Z" fill="white"/>
<path d="M20.5103 0C21.4444 0.230148 22.4056 0.379068 23.2992 0.703983C27.9698 2.4504 30.7181 6.9586 30.2578 12.0625C29.8381 16.679 26.088 20.6592 21.3632 21.4986C14.4452 22.7305 8.10937 16.9768 8.70505 9.99115C9.15181 4.7925 12.9831 0.79875 18.1953 0.0947666C18.2901 0.0812284 18.3848 0.0406152 18.4796 0.013539C19.1565 8.26101e-07 19.8334 0 20.5103 0ZM10.8441 10.8305C10.8441 15.6095 14.7024 19.4814 19.4814 19.4949C24.2739 19.5085 28.1594 15.623 28.1594 10.8305C28.1594 6.05155 24.301 2.17964 19.522 2.1661C14.7431 2.13903 10.8441 6.03801 10.8441 10.8305Z" fill="white"/>
<path d="M31.07 51.9864C30.7992 51.6615 30.4472 51.3637 30.2577 50.9982C29.0257 48.5884 27.8208 46.1786 26.6295 43.7553C26.467 43.4303 26.291 43.322 25.939 43.322C24.3009 43.3356 22.6628 43.3356 21.0111 43.3356C20.8758 43.3356 20.7404 43.3356 20.605 43.3356C19.9416 43.2814 19.4949 42.8482 19.4949 42.2525C19.4949 41.6568 19.9416 41.183 20.605 41.1695C22.7576 41.1559 24.8966 41.1559 27.0492 41.1695C27.5771 41.1695 27.9021 41.4809 28.1322 41.9547C29.0934 43.9042 30.0817 45.8537 31.0564 47.8032C31.1377 47.9521 31.2054 48.101 31.3272 48.3176C31.422 48.101 31.5032 47.9385 31.5709 47.7761C33.3173 43.7011 35.0637 39.6126 36.8237 35.5376C37.1621 34.7659 37.7578 34.4681 38.3806 34.8336C38.6378 34.9825 38.8544 35.2668 38.9898 35.5376C40.9258 39.3824 42.8617 43.2273 44.7706 47.0992C44.9872 47.5459 45.2309 47.6949 45.7318 47.6949C47.3428 47.6542 48.9403 47.6949 50.5514 47.6678C51.2012 47.6542 51.7021 47.8573 52 48.4665C52 48.6696 52 48.8727 52 49.0757C51.7021 49.685 51.2147 49.8745 50.5514 49.8745C48.6425 49.8474 46.7336 49.8474 44.8112 49.8745C44.0531 49.888 43.5928 49.6037 43.2543 48.9133C41.6162 45.5829 39.9375 42.2525 38.2723 38.9357C38.191 38.7732 38.1098 38.6243 37.988 38.3942C37.8932 38.6108 37.812 38.7461 37.7443 38.8951C36.0249 42.9024 34.3191 46.9096 32.5727 50.9034C32.3967 51.3095 32.0447 51.648 31.774 52.0135C31.5438 51.9865 31.3001 51.9864 31.07 51.9864Z" fill="white"/>
</svg>
