<svg width="22" height="22" viewBox="0 0 22 22" fill="none" xmlns="http://www.w3.org/2000/svg">
<path d="M11 21C16.5228 21 21 16.5228 21 11C21 5.47715 16.5228 1 11 1C5.47715 1 1 5.47715 1 11C1 16.5228 5.47715 21 11 21Z" stroke="url(#paint0_linear_250_4994)" stroke-width="2" stroke-linecap="round" stroke-linejoin="round"/>
<path d="M12.396 11.4791C12.9651 11.1689 13.4147 10.6779 13.6738 10.0838C13.9328 9.48958 13.9866 8.82603 13.8265 8.19791C13.6664 7.56979 13.3017 7.01288 12.7899 6.61513C12.2781 6.21739 11.6484 6.00146 11.0002 6.00146C10.352 6.00146 9.72224 6.21739 9.21043 6.61513C8.69862 7.01288 8.33388 7.56979 8.17382 8.19791C8.01376 8.82603 8.06749 9.48958 8.32654 10.0838C8.58559 10.6779 9.03518 11.1689 9.60433 11.4791L8.16683 14.8333C8.1116 14.9598 8.08867 15.0981 8.10013 15.2357C8.11158 15.3734 8.15706 15.506 8.23246 15.6216C8.30786 15.7373 8.41083 15.8325 8.5321 15.8985C8.65338 15.9645 8.78916 15.9994 8.92725 15.9999H13.0731C13.2112 15.9994 13.347 15.9645 13.4682 15.8985C13.5895 15.8325 13.6925 15.7373 13.7679 15.6216C13.8433 15.506 13.8887 15.3734 13.9002 15.2357C13.9117 15.0981 13.8887 14.9598 13.8335 14.8333L12.396 11.4791Z" stroke="url(#paint1_linear_250_4994)" stroke-width="2" stroke-linecap="round" stroke-linejoin="round"/>
<defs>
<linearGradient id="paint0_linear_250_4994" x1="1.23233" y1="10.9346" x2="20.8058" y2="10.9977" gradientUnits="userSpaceOnUse">
<stop stop-color="#0281C6"/>
<stop offset="1" stop-color="#005BAA"/>
</linearGradient>
<linearGradient id="paint1_linear_250_4994" x1="8.15126" y1="10.968" x2="13.8602" y2="10.9788" gradientUnits="userSpaceOnUse">
<stop stop-color="#0281C6"/>
<stop offset="1" stop-color="#005BAA"/>
</linearGradient>
</defs>
</svg>
