<svg width="112" height="112" viewBox="0 0 112 112" fill="none" xmlns="http://www.w3.org/2000/svg">
<path d="M99.5556 0H12.4444C5.57157 0 0 5.57157 0 12.4444V99.5556C0 106.428 5.57157 112 12.4444 112H99.5556C106.428 112 112 106.428 112 99.5556V12.4444C112 5.57157 106.428 0 99.5556 0Z" fill="#F9FFFF"/>
<path opacity="0.2" d="M65.6086 20.3125H43.1756C29.4096 20.3125 18.25 31.4721 18.25 45.2381V67.6711C18.25 81.4372 29.4096 92.5967 43.1756 92.5967H65.6086C79.3747 92.5967 90.5342 81.4372 90.5342 67.6711V45.2381C90.5342 31.4721 79.3747 20.3125 65.6086 20.3125Z" fill="#DBDBDB"/>
<path opacity="0.2" d="M60.415 69.0447V41.625H68.2216V69.0447H60.415Z" fill="#DADEDD" stroke="#DADEDD" stroke-width="2"/>
<path d="M72.0234 70.0444H37" stroke="#DADEDD" stroke-width="2" stroke-linecap="round" stroke-linejoin="round"/>
<path d="M49.6084 70.0448V49.0308H59.4149" stroke="#DADEDD" stroke-width="2" stroke-linecap="round" stroke-linejoin="round"/>
<path d="M69.2216 40.625H59.415V70.0447H69.2216V40.625Z" stroke="#DADEDD" stroke-width="2" stroke-linecap="round" stroke-linejoin="round"/>
<path d="M39.802 70.0449V57.4365H49.6086" stroke="#DADEDD" stroke-width="2" stroke-linecap="round" stroke-linejoin="round"/>
</svg>
