<svg width="112" height="112" viewBox="0 0 112 112" fill="none" xmlns="http://www.w3.org/2000/svg">
<path d="M99.5556 0H12.4444C5.57157 0 0 5.57157 0 12.4444V99.5556C0 106.428 5.57157 112 12.4444 112H99.5556C106.428 112 112 106.428 112 99.5556V12.4444C112 5.57157 106.428 0 99.5556 0Z" fill="#F9FFFF"/>
<path opacity="0.2" d="M67.1335 19.6279H44.7005C30.9345 19.6279 19.7749 30.7875 19.7749 44.5535V66.9866C19.7749 80.7526 30.9345 91.9122 44.7005 91.9122H67.1335C80.8996 91.9122 92.0591 80.7526 92.0591 66.9866V44.5535C92.0591 30.7875 80.8996 19.6279 67.1335 19.6279Z" fill="#DBDBDB"/>
<path opacity="0.2" d="M52.2462 69.261C51.511 69.9981 50.6376 70.5828 49.676 70.9818C48.7144 71.3808 47.6836 71.5862 46.6425 71.5862C45.6014 71.5862 44.5706 71.3808 43.609 70.9818C42.6474 70.5828 41.774 69.9981 41.0388 69.261C40.3017 68.5258 39.717 67.6524 39.318 66.6908C38.919 65.7292 38.7136 64.6984 38.7136 63.6573C38.7136 62.6162 38.919 61.5854 39.318 60.6238C39.717 59.6622 40.3017 58.7888 41.0388 58.0536L49.4444 49.6479L60.6519 60.8554L52.2462 69.261Z" fill="#DADEDD"/>
<path d="M57.8501 41.2344L41.0468 58.0376C37.9489 61.1356 37.9464 66.1559 41.0413 69.2507C44.1361 72.3456 49.1564 72.3431 52.2544 69.2452L69.0576 52.4419C72.1556 49.344 72.1581 44.3237 69.0632 41.2288C65.9683 38.1339 60.948 38.1364 57.8501 41.2344Z" stroke="#DADEDD" stroke-width="2" stroke-linecap="round" stroke-linejoin="round"/>
<path d="M49.4443 49.6479L60.6518 60.8554" stroke="#DADEDD" stroke-width="2" stroke-linecap="round" stroke-linejoin="round"/>
<path d="M60.6694 52.4672L64.9423 48.3345" stroke="#DADEDD" stroke-width="2" stroke-linecap="round" stroke-linejoin="round"/>
</svg>
