<svg width="112" height="112" viewBox="0 0 112 112" fill="none" xmlns="http://www.w3.org/2000/svg">
<path d="M99.5556 0H12.4444C5.57157 0 0 5.57157 0 12.4444V99.5556C0 106.428 5.57157 112 12.4444 112H99.5556C106.428 112 112 106.428 112 99.5556V12.4444C112 5.57157 106.428 0 99.5556 0Z" fill="#F9FFFF"/>
<path opacity="0.2" d="M67.6711 19.9404H45.2381C31.4721 19.9404 20.3125 31.1 20.3125 44.866V67.2991C20.3125 81.0651 31.4721 92.2247 45.2381 92.2247H67.6711C81.4372 92.2247 92.5967 81.0651 92.5967 67.2991V44.866C92.5967 31.1 81.4372 19.9404 67.6711 19.9404Z" fill="#BB6BD9"/>
<path opacity="0.2" d="M55.8737 72.685C65.1583 72.685 72.685 65.1583 72.685 55.8737C72.685 46.5891 65.1583 39.0625 55.8737 39.0625C46.5891 39.0625 39.0625 46.5891 39.0625 55.8737C39.0625 65.1583 46.5891 72.685 55.8737 72.685Z" fill="#9B51E0"/>
<path d="M55.8737 72.685C65.1583 72.685 72.685 65.1583 72.685 55.8737C72.685 46.5891 65.1583 39.0625 55.8737 39.0625C46.5891 39.0625 39.0625 46.5891 39.0625 55.8737C39.0625 65.1583 46.5891 72.685 55.8737 72.685Z" stroke="#9B51E0" stroke-width="2" stroke-linecap="round" stroke-linejoin="round"/>
<path d="M55.8736 67.0812C57.0342 67.0812 57.975 66.1404 57.975 64.9798C57.975 63.8192 57.0342 62.8784 55.8736 62.8784C54.713 62.8784 53.7722 63.8192 53.7722 64.9798C53.7722 66.1404 54.713 67.0812 55.8736 67.0812Z" fill="#9B51E0"/>
<path d="M55.8737 58.6758V57.2748C56.8435 57.2748 57.7915 56.9872 58.5978 56.4485C59.4042 55.9097 60.0327 55.1439 60.4038 54.2479C60.7749 53.352 60.872 52.3661 60.6828 51.415C60.4936 50.4638 60.0266 49.5901 59.3409 48.9044C58.6551 48.2187 57.7815 47.7517 56.8303 47.5625C55.8792 47.3733 54.8933 47.4704 53.9973 47.8415C53.1014 48.2126 52.3356 48.8411 51.7968 49.6474C51.258 50.4538 50.9705 51.4018 50.9705 52.3715" stroke="#9B51E0" stroke-width="2" stroke-linecap="round" stroke-linejoin="round"/>
<path d="M84 34C88.4183 34 92 30.4183 92 26C92 21.5817 88.4183 18 84 18C79.5817 18 76 21.5817 76 26C76 30.4183 79.5817 34 84 34Z" fill="#00C93C" stroke="#00C93C" stroke-width="2" stroke-linecap="round" stroke-linejoin="round"/>
<path d="M87.6668 23.8184L82.7752 28.485L80.3335 26.1517" stroke="white" stroke-width="2" stroke-linecap="round" stroke-linejoin="round"/>
</svg>
