<svg width="112" height="112" viewBox="0 0 112 112" fill="none" xmlns="http://www.w3.org/2000/svg">
<path d="M99.5556 0H12.4444C5.57157 0 0 5.57157 0 12.4444V99.5556C0 106.428 5.57157 112 12.4444 112H99.5556C106.428 112 112 106.428 112 99.5556V12.4444C112 5.57157 106.428 0 99.5556 0Z" fill="#F9FFFF"/>
<path opacity="0.2" d="M67.6711 20H45.2381C31.4721 20 20.3125 31.1596 20.3125 44.9256V67.3586C20.3125 81.1247 31.4721 92.2842 45.2381 92.2842H67.6711C81.4372 92.2842 92.5967 81.1247 92.5967 67.3586V44.9256C92.5967 31.1596 81.4372 20 67.6711 20Z" fill="#DBDBDB"/>
<path opacity="0.2" d="M56.8973 59.9662V42.6296C56.8973 41.1434 56.3069 39.7181 55.256 38.6672C54.2051 37.6163 52.7798 37.0259 51.2936 37.0259C49.8074 37.0259 48.382 37.6163 47.3311 38.6672C46.2802 39.7181 45.6898 41.1434 45.6898 42.6296V59.9662C44.1952 61.1331 43.1022 62.7374 42.5632 64.5553C42.0242 66.3732 42.0661 68.3141 42.6831 70.107C43.3001 71.8999 44.4614 73.4556 46.005 74.5568C47.5486 75.658 49.3974 76.2499 51.2936 76.2499C53.1897 76.2499 55.0386 75.658 56.5822 74.5568C58.1257 73.4556 59.2871 71.8999 59.9041 70.107C60.5211 68.3141 60.563 66.3732 60.024 64.5553C59.485 62.7374 58.3919 61.1331 56.8973 59.9662ZM51.2936 70.6483C50.6009 70.6483 49.9237 70.4429 49.3478 70.0581C48.7718 69.6732 48.3229 69.1263 48.0578 68.4863C47.7928 67.8463 47.7234 67.1421 47.8585 66.4627C47.9937 65.7833 48.3272 65.1593 48.8171 64.6695C49.3069 64.1797 49.9309 63.8461 50.6103 63.711C51.2897 63.5758 51.9939 63.6452 52.6339 63.9103C53.2738 64.1753 53.8208 64.6242 54.2057 65.2002C54.5905 65.7762 54.7959 66.4533 54.7959 67.146C54.7913 68.0735 54.4208 68.9616 53.765 69.6174C53.1092 70.2733 52.221 70.6437 51.2936 70.6483Z" fill="#DADEDD"/>
<path d="M51.2938 69.2474C53.2281 69.2474 54.7962 67.6793 54.7962 65.745C54.7962 63.8107 53.2281 62.2427 51.2938 62.2427C49.3596 62.2427 47.7915 63.8107 47.7915 65.745C47.7915 67.6793 49.3596 69.2474 51.2938 69.2474Z" stroke="#DADEDD" stroke-width="2" stroke-linecap="round" stroke-linejoin="round"/>
<path d="M51.2937 62.243V41.229" stroke="#DADEDD" stroke-width="2" stroke-linecap="round" stroke-linejoin="round"/>
<path d="M72.3604 46.8324C72.0351 47.158 71.6488 47.4163 71.2236 47.5926C70.7985 47.7688 70.3427 47.8596 69.8824 47.8596C69.4222 47.8596 68.9664 47.7688 68.5413 47.5926C68.1161 47.4163 67.7298 47.158 67.4045 46.8324C67.0793 46.5067 66.693 46.2484 66.2678 46.0721C65.8426 45.8959 65.3869 45.8052 64.9266 45.8052C64.4664 45.8052 64.0106 45.8959 63.5854 46.0721C63.1603 46.2484 62.774 46.5067 62.4487 46.8324" stroke="#DADEDD" stroke-width="2" stroke-linecap="round" stroke-linejoin="round"/>
<path d="M72.3604 53.8372C72.0351 54.1629 71.6488 54.4212 71.2236 54.5975C70.7985 54.7737 70.3427 54.8644 69.8824 54.8644C69.4222 54.8644 68.9664 54.7737 68.5413 54.5975C68.1161 54.4212 67.7298 54.1629 67.4045 53.8372C67.0793 53.5116 66.693 53.2533 66.2678 53.077C65.8426 52.9008 65.3869 52.8101 64.9266 52.8101C64.4664 52.8101 64.0106 52.9008 63.5854 53.077C63.1603 53.2533 62.774 53.5116 62.4487 53.8372" stroke="#DADEDD" stroke-width="2" stroke-linecap="round" stroke-linejoin="round"/>
<path d="M45.6898 58.5653V41.2287C45.6898 39.7425 46.2802 38.3172 47.3311 37.2663C48.382 36.2154 49.8074 35.625 51.2936 35.625C52.7798 35.625 54.2051 36.2154 55.256 37.2663C56.3069 38.3172 56.8973 39.7425 56.8973 41.2287V58.5653C58.3919 59.7322 59.485 61.3365 60.024 63.1544C60.563 64.9723 60.5211 66.9132 59.9041 68.7061C59.2871 70.4991 58.1257 72.0547 56.5822 73.1559C55.0386 74.2572 53.1897 74.8491 51.2936 74.8491C49.3974 74.8491 47.5486 74.2572 46.005 73.1559C44.4614 72.0547 43.3001 70.4991 42.6831 68.7061C42.0661 66.9132 42.0242 64.9723 42.5632 63.1544C43.1022 61.3365 44.1952 59.7322 45.6898 58.5653Z" stroke="#DADEDD" stroke-width="2" stroke-linecap="round" stroke-linejoin="round"/>
</svg>
