<svg width="73" height="73" viewBox="0 0 73 73" fill="none" xmlns="http://www.w3.org/2000/svg">
<path opacity="0.2" d="M47.3586 0H24.9256C11.1596 0 0 11.1596 0 24.9256V47.3586C0 61.1247 11.1596 72.2842 24.9256 72.2842H47.3586C61.1247 72.2842 72.2842 61.1247 72.2842 47.3586V24.9256C72.2842 11.1596 61.1247 0 47.3586 0Z" fill="#C499EB"/>
<path opacity="0.2" d="M36.5848 39.9662V22.6296C36.5848 21.1434 35.9944 19.7181 34.9435 18.6672C33.8926 17.6163 32.4673 17.0259 30.9811 17.0259C29.4949 17.0259 28.0695 17.6163 27.0186 18.6672C25.9677 19.7181 25.3773 21.1434 25.3773 22.6296V39.9662C23.8827 41.1331 22.7897 42.7374 22.2507 44.5553C21.7117 46.3732 21.7536 48.3141 22.3706 50.107C22.9876 51.8999 24.1489 53.4556 25.6925 54.5568C27.2361 55.658 29.0849 56.2499 30.9811 56.2499C32.8772 56.2499 34.7261 55.658 36.2697 54.5568C37.8132 53.4556 38.9746 51.8999 39.5916 50.107C40.2086 48.3141 40.2505 46.3732 39.7115 44.5553C39.1725 42.7374 38.0794 41.1331 36.5848 39.9662ZM30.9811 50.6483C30.2884 50.6483 29.6112 50.4429 29.0353 50.0581C28.4593 49.6732 28.0104 49.1263 27.7453 48.4863C27.4803 47.8463 27.4109 47.1421 27.546 46.4627C27.6812 45.7833 28.0147 45.1593 28.5046 44.6695C28.9944 44.1797 29.6184 43.8461 30.2978 43.711C30.9772 43.5758 31.6814 43.6452 32.3214 43.9103C32.9613 44.1753 33.5083 44.6242 33.8932 45.2002C34.278 45.7762 34.4834 46.4533 34.4834 47.146C34.4788 48.0735 34.1083 48.9616 33.4525 49.6174C32.7967 50.2733 31.9085 50.6437 30.9811 50.6483Z" fill="#C499EB"/>
<path d="M30.9813 49.2474C32.9156 49.2474 34.4837 47.6793 34.4837 45.745C34.4837 43.8107 32.9156 42.2427 30.9813 42.2427C29.0471 42.2427 27.479 43.8107 27.479 45.745C27.479 47.6793 29.0471 49.2474 30.9813 49.2474Z" stroke="#C499EB" stroke-width="2" stroke-linecap="round" stroke-linejoin="round"/>
<path d="M30.9812 42.243V21.229" stroke="#C499EB" stroke-width="2" stroke-linecap="round" stroke-linejoin="round"/>
<path d="M52.0479 26.8324C51.7226 27.158 51.3363 27.4163 50.9111 27.5926C50.486 27.7688 50.0302 27.8596 49.5699 27.8596C49.1097 27.8596 48.6539 27.7688 48.2288 27.5926C47.8036 27.4163 47.4173 27.158 47.092 26.8324C46.7668 26.5067 46.3805 26.2484 45.9553 26.0721C45.5301 25.8959 45.0744 25.8052 44.6141 25.8052C44.1539 25.8052 43.6981 25.8959 43.2729 26.0721C42.8478 26.2484 42.4615 26.5067 42.1362 26.8324" stroke="#C499EB" stroke-width="2" stroke-linecap="round" stroke-linejoin="round"/>
<path d="M52.0479 33.8372C51.7226 34.1629 51.3363 34.4212 50.9111 34.5975C50.486 34.7737 50.0302 34.8644 49.5699 34.8644C49.1097 34.8644 48.6539 34.7737 48.2288 34.5975C47.8036 34.4212 47.4173 34.1629 47.092 33.8372C46.7668 33.5116 46.3805 33.2533 45.9553 33.077C45.5301 32.9008 45.0744 32.8101 44.6141 32.8101C44.1539 32.8101 43.6981 32.9008 43.2729 33.077C42.8478 33.2533 42.4615 33.5116 42.1362 33.8372" stroke="#C499EB" stroke-width="2" stroke-linecap="round" stroke-linejoin="round"/>
<path d="M25.3773 38.5653V21.2287C25.3773 19.7425 25.9677 18.3172 27.0186 17.2663C28.0695 16.2154 29.4949 15.625 30.9811 15.625C32.4673 15.625 33.8926 16.2154 34.9435 17.2663C35.9944 18.3172 36.5848 19.7425 36.5848 21.2287V38.5653C38.0794 39.7322 39.1725 41.3365 39.7115 43.1544C40.2505 44.9723 40.2086 46.9132 39.5916 48.7061C38.9746 50.4991 37.8132 52.0547 36.2697 53.1559C34.7261 54.2572 32.8772 54.8491 30.9811 54.8491C29.0849 54.8491 27.2361 54.2572 25.6925 53.1559C24.1489 52.0547 22.9876 50.4991 22.3706 48.7061C21.7536 46.9132 21.7117 44.9723 22.2507 43.1544C22.7897 41.3365 23.8827 39.7322 25.3773 38.5653Z" stroke="#C499EB" stroke-width="2" stroke-linecap="round" stroke-linejoin="round"/>
</svg>
