<svg width="73" height="73" viewBox="0 0 73 73" fill="none" xmlns="http://www.w3.org/2000/svg">
<path opacity="0.2" d="M47.3586 0H24.9256C11.1596 0 0 11.1596 0 24.9256V47.3586C0 61.1247 11.1596 72.2842 24.9256 72.2842H47.3586C61.1247 72.2842 72.2842 61.1247 72.2842 47.3586V24.9256C72.2842 11.1596 61.1247 0 47.3586 0Z" fill="#C499EB"/>
<path opacity="0.2" d="M32.4713 49.6331C31.7361 50.3702 30.8627 50.9549 29.9011 51.3539C28.9395 51.7529 27.9087 51.9582 26.8676 51.9582C25.8265 51.9582 24.7957 51.7529 23.8341 51.3539C22.8725 50.9549 21.9991 50.3702 21.2639 49.6331C20.5268 48.8979 19.9421 48.0244 19.5431 47.0629C19.1441 46.1013 18.9387 45.0704 18.9387 44.0294C18.9387 42.9883 19.1441 41.9575 19.5431 40.9959C19.9421 40.0343 20.5268 39.1609 21.2639 38.4256L29.6695 30.02L40.877 41.2275L32.4713 49.6331Z" fill="#C499EB"/>
<path d="M38.0752 21.6065L21.2719 38.4097C18.174 41.5077 18.1715 46.5279 21.2664 49.6228C24.3612 52.7177 29.3815 52.7152 32.4795 49.6172L49.2827 32.814C52.3807 29.716 52.3832 24.6958 49.2883 21.6009C46.1934 18.506 41.1731 18.5085 38.0752 21.6065Z" stroke="#C499EB" stroke-width="2" stroke-linecap="round" stroke-linejoin="round"/>
<path d="M29.6694 30.02L40.8769 41.2275" stroke="#C499EB" stroke-width="2" stroke-linecap="round" stroke-linejoin="round"/>
<path d="M40.8945 32.8393L45.1674 28.7065" stroke="#C499EB" stroke-width="2" stroke-linecap="round" stroke-linejoin="round"/>
</svg>
