<svg width="73" height="73" viewBox="0 0 73 73" fill="none" xmlns="http://www.w3.org/2000/svg">
<path opacity="0.2" d="M47.3586 0H24.9256C11.1596 0 0 11.1596 0 24.9256V47.3586C0 61.1247 11.1596 72.2842 24.9256 72.2842H47.3586C61.1247 72.2842 72.2842 61.1247 72.2842 47.3586V24.9256C72.2842 11.1596 61.1247 0 47.3586 0Z" fill="#DADEDD"/>
<path opacity="0.2" d="M35.5612 52.7445C44.8458 52.7445 52.3725 45.2179 52.3725 35.9333C52.3725 26.6487 44.8458 19.1221 35.5612 19.1221C26.2766 19.1221 18.75 26.6487 18.75 35.9333C18.75 45.2179 26.2766 52.7445 35.5612 52.7445Z" fill="#DADEDD"/>
<path d="M35.5612 52.7445C44.8458 52.7445 52.3725 45.2179 52.3725 35.9333C52.3725 26.6487 44.8458 19.1221 35.5612 19.1221C26.2766 19.1221 18.75 26.6487 18.75 35.9333C18.75 45.2179 26.2766 52.7445 35.5612 52.7445Z" stroke="#DADEDD" stroke-width="2" stroke-linecap="round" stroke-linejoin="round"/>
<path d="M35.5611 47.1408C36.7217 47.1408 37.6625 46.2 37.6625 45.0394C37.6625 43.8788 36.7217 42.938 35.5611 42.938C34.4005 42.938 33.4597 43.8788 33.4597 45.0394C33.4597 46.2 34.4005 47.1408 35.5611 47.1408Z" fill="#DADEDD"/>
<path d="M35.5612 38.7353V37.3344C36.531 37.3344 37.479 37.0468 38.2853 36.508C39.0917 35.9693 39.7202 35.2035 40.0913 34.3075C40.4624 33.4116 40.5595 32.4257 40.3703 31.4745C40.1811 30.5234 39.7141 29.6497 39.0284 28.964C38.3426 28.2782 37.469 27.8112 36.5178 27.622C35.5667 27.4329 34.5808 27.53 33.6848 27.9011C32.7889 28.2722 32.0231 28.9007 31.4843 29.707C30.9455 30.5133 30.658 31.4613 30.658 32.4311" stroke="#DADEDD" stroke-width="2" stroke-linecap="round" stroke-linejoin="round"/>
</svg>
