<svg width="96" height="96" viewBox="0 0 96 96" fill="none" xmlns="http://www.w3.org/2000/svg">
<path d="M82.6665 82.6667H13.3332C12.6259 82.6667 11.9477 82.9476 11.4476 83.4477C10.9475 83.9478 10.6665 84.6261 10.6665 85.3333C10.6665 86.0406 10.9475 86.7189 11.4476 87.219C11.9477 87.7191 12.6259 88 13.3332 88H82.6665C83.3737 88 84.052 87.7191 84.5521 87.219C85.0522 86.7189 85.3332 86.0406 85.3332 85.3333C85.3332 84.6261 85.0522 83.9478 84.5521 83.4477C84.052 82.9476 83.3737 82.6667 82.6665 82.6667ZM23.4932 40L45.3332 18.2133V73.28C45.3332 73.9872 45.6141 74.6655 46.1142 75.1656C46.6143 75.6657 47.2926 75.9467 47.9998 75.9467C48.7071 75.9467 49.3854 75.6657 49.8855 75.1656C50.3856 74.6655 50.6665 73.9872 50.6665 73.28V18.2133L72.5065 40C73.0166 40.4369 73.6728 40.6652 74.344 40.6392C75.0151 40.6133 75.6518 40.3351 76.1267 39.8602C76.6016 39.3853 76.8798 38.7486 76.9057 38.0775C76.9317 37.4063 76.7034 36.7501 76.2665 36.24L47.9998 8L19.7065 36.2933C19.4149 36.5303 19.1767 36.8262 19.0074 37.1616C18.8382 37.497 18.7417 37.8645 18.7244 38.2398C18.707 38.6151 18.7692 38.9899 18.9068 39.3395C19.0444 39.6891 19.2543 40.0057 19.5228 40.2685C19.7913 40.5314 20.1123 40.7345 20.4648 40.8646C20.8173 40.9947 21.1933 41.0488 21.5681 41.0235C21.943 40.9981 22.3083 40.8938 22.64 40.7175C22.9718 40.5411 23.2625 40.2966 23.4932 40Z" fill="url(#paint0_linear_250_5821)"/>
<defs>
<linearGradient id="paint0_linear_250_5821" x1="11.5339" y1="47.7385" x2="84.6082" y2="47.9584" gradientUnits="userSpaceOnUse">
<stop stop-color="#0281C6"/>
<stop offset="1" stop-color="#005BAA"/>
</linearGradient>
</defs>
</svg>
